# xmcd
#
# Track frame offsets: 
#        150
#        21791
#        39272
#        53540
#        68171
#        78762
#        93877
#        105310
#        122264
#        135578
#
# Disc length: 2007 seconds
#
# Revision: 0
# Processed by: cddbd v1.5.2PL0 Copyright (c) Steve Scherf et al.
# Submitted via: ExactAudioCopy v1.0b1
#
DISCID=6507d50a
DTITLE=Andy Twyman - Blues You Haven't Heard Before
DYEAR=2014
DGENRE=Blues
TTITLE0=I Eat Pot Noodle With A Plasti
TTITLE1=Afraid Of The Blues
TTITLE2=Stand Up
TTITLE3=You Ain't Fat
TTITLE4=I Want To Be Captain Kirk
TTITLE5=Sharkey's Bar
TTITLE6=Information Freedom
TTITLE7=Relax
TTITLE8=Lick Luxembourg
TTITLE9=Field Of Heather (Bonus Track)
EXTD=
EXTT0=
EXTT1=
EXTT2=
EXTT3=
EXTT4=
EXTT5=
EXTT6=
EXTT7=
EXTT8=
EXTT9=
PLAYORDER=
